<svg id="a9afe10c-6bf5-4a2a-9cef-0711ccd86834" data-name="Calque 1" xmlns="http://www.w3.org/2000/svg" viewBox="0 0 117.85 21.89"><path d="M47,96.13v2.25H38.72V90h2.93v6.15Z" transform="translate(-38.72 -89.71)"/><path d="M57.31,96.27v2.11H48.09V90h9.09v2.11H51v1.07H56V95.1H51v1.17Z" transform="translate(-38.72 -89.71)"/><path d="M68.52,98.38l-2-2.47h-2v2.47H61.61V90h6c2.24,0,4,1,4,3a2.75,2.75,0,0,1-2.1,2.69l2.37,2.75ZM67.34,94c.75,0,1.29-.22,1.29-.93s-.54-.94-1.29-.94H64.52V94Z" transform="translate(-38.72 -89.71)"/><path d="M72.44,94.18c0-2.87,2.23-4.47,5.59-4.47s5.6,1.6,5.6,4.47S81.4,98.65,78,98.65,72.44,97.05,72.44,94.18Zm8.21,0c0-1.38-1-2.18-2.62-2.18s-2.63.8-2.63,2.18,1,2.18,2.63,2.18S80.65,95.56,80.65,94.18Z" transform="translate(-38.72 -89.71)"/><path d="M94.83,90v4.44c0,2.59-1.8,4.23-5,4.23s-5-1.64-5-4.23V90h2.92v4.21a2.1,2.1,0,1,0,4.19,0V90Z" transform="translate(-38.72 -89.71)"/><path d="M105.64,96.27v2.11H96.41V90h9.1v2.11H99.28v1.07h5.07V95.1H99.28v1.17Z" transform="translate(-38.72 -89.71)"/><path d="M117.23,90v8.4h-2.57l-4.87-5v5H107V90h3.1l4.33,4.56V90Z" transform="translate(-38.72 -89.71)"/><path d="M129.2,90v8.4h-2.56l-4.87-5v5H119V90H122l4.33,4.56V90Z" transform="translate(-38.72 -89.71)"/><path d="M137.87,96.93h-4.2L133,98.38h-3.05L134.2,90h3.18l4.26,8.4h-3.09ZM137,95l-1.21-2.59L134.56,95Z" transform="translate(-38.72 -89.71)"/><path d="M142.39,98.38V90h2.92v8.4Z" transform="translate(-38.72 -89.71)"/><path d="M156.56,95.67c0,1.81-1.61,3-4.72,3a9,9,0,0,1-5.43-1.59l1.45-1.68a6.77,6.77,0,0,0,4,1.21c1.2,0,1.78-.2,1.78-.62s-.48-.56-2-.69c-2.57-.23-4.86-.81-4.86-2.73s2-2.84,4.72-2.84a8.71,8.71,0,0,1,4.71,1.21l-1.39,1.7a5.89,5.89,0,0,0-3.32-.88c-.85,0-1.83.11-1.83.57s.75.49,2.11.6C154.57,93.14,156.56,93.67,156.56,95.67Z" transform="translate(-38.72 -89.71)"/><path d="M72.77,111.6a3.9,3.9,0,0,1-1.79-.41A3,3,0,0,1,69.71,110a3.8,3.8,0,0,1-.47-2,3.85,3.85,0,0,1,.29-1.54,3.13,3.13,0,0,1,.78-1.12,3.43,3.43,0,0,1,1.14-.67,4.14,4.14,0,0,1,1.37-.22,4,4,0,0,1,1.07.13,4.12,4.12,0,0,1,.92.37l0,1.25h-.1l-.51-.81a2.21,2.21,0,0,0-.23-.36.89.89,0,0,0-.3-.24,1.76,1.76,0,0,0-.3-.1,1.38,1.38,0,0,0-.38,0A1.92,1.92,0,0,0,72,105a2.22,2.22,0,0,0-.78,1,7.09,7.09,0,0,0,0,4,2,2,0,0,0,.75,1,1.86,1.86,0,0,0,1.06.31,2.43,2.43,0,0,0,.52,0,2,2,0,0,0,.39-.14.6.6,0,0,0,.3-.24,2.21,2.21,0,0,0,.18-.34l.45-1h.1l0,1.46a4.17,4.17,0,0,1-1,.36A4.23,4.23,0,0,1,72.77,111.6Z" transform="translate(-38.72 -89.71)"/><path d="M75.41,111.41v-.1l.21-.08a.52.52,0,0,0,.27-.19.76.76,0,0,0,.06-.32v-5.34a.73.73,0,0,0-.06-.32.53.53,0,0,0-.27-.2l-.21-.08v-.1H78v.1l-.17.07a.52.52,0,0,0-.27.19.72.72,0,0,0-.07.32v2.48h2.44v-2.48a.61.61,0,0,0-.07-.32.45.45,0,0,0-.27-.19l-.18-.07v-.1H82v.1l-.2.08a.53.53,0,0,0-.27.2.61.61,0,0,0-.07.32v5.34a.63.63,0,0,0,.07.32.52.52,0,0,0,.27.19l.2.08v.1h-2.6v-.1l.18-.06a.46.46,0,0,0,.27-.2.58.58,0,0,0,.07-.32v-2.68H77.49v2.68a.51.51,0,0,0,.34.52l.17.06v.1Z" transform="translate(-38.72 -89.71)"/><path d="M85.48,111.6a3.28,3.28,0,0,1-1.2-.23,3,3,0,0,1-1-.67,3.19,3.19,0,0,1-.72-1.1,4.09,4.09,0,0,1-.26-1.55,4,4,0,0,1,.26-1.54,3.11,3.11,0,0,1,.73-1.11,3,3,0,0,1,1-.67,3.07,3.07,0,0,1,1.19-.23,3.31,3.31,0,0,1,1.2.22,2.84,2.84,0,0,1,1,.66,3.33,3.33,0,0,1,.72,1.11,4.4,4.4,0,0,1,.26,1.56,4.27,4.27,0,0,1-.26,1.53,3.14,3.14,0,0,1-.72,1.11,3.19,3.19,0,0,1-1,.68A3.32,3.32,0,0,1,85.48,111.6Zm0-.22a1.35,1.35,0,0,0,.91-.3,1.81,1.81,0,0,0,.5-1,9.5,9.5,0,0,0,.16-2,9.71,9.71,0,0,0-.16-2,1.84,1.84,0,0,0-.5-1,1.35,1.35,0,0,0-.91-.3,1.32,1.32,0,0,0-.9.3,1.84,1.84,0,0,0-.5,1,9.71,9.71,0,0,0-.16,2,9.5,9.5,0,0,0,.16,2,1.81,1.81,0,0,0,.5,1A1.32,1.32,0,0,0,85.48,111.38Z" transform="translate(-38.72 -89.71)"/><path d="M92.79,111.6a3.93,3.93,0,0,1-1.79-.41A3,3,0,0,1,89.73,110a3.8,3.8,0,0,1-.47-2,3.85,3.85,0,0,1,.29-1.54,3.13,3.13,0,0,1,.78-1.12,3.43,3.43,0,0,1,1.14-.67,4.16,4.16,0,0,1,1.38-.22,3.89,3.89,0,0,1,2,.5l0,1.25h-.1l-.51-.81a2.16,2.16,0,0,0-.22-.36.83.83,0,0,0-.31-.24,1.76,1.76,0,0,0-.3-.1,1.31,1.31,0,0,0-.37,0A2,2,0,0,0,92,105a2.14,2.14,0,0,0-.77,1,5.42,5.42,0,0,0-.29,2,5.86,5.86,0,0,0,.27,2,2.13,2.13,0,0,0,.75,1,1.89,1.89,0,0,0,1.07.31,2.43,2.43,0,0,0,.52,0,2,2,0,0,0,.39-.14.57.57,0,0,0,.29-.24,3.72,3.72,0,0,0,.19-.34l.44-1H95l0,1.46a4.55,4.55,0,0,1-1,.36A4.31,4.31,0,0,1,92.79,111.6Z" transform="translate(-38.72 -89.71)"/><path d="M98.57,111.6a3.24,3.24,0,0,1-1.2-.23,2.91,2.91,0,0,1-1-.67,3.19,3.19,0,0,1-.72-1.1,4.09,4.09,0,0,1-.27-1.55,4,4,0,0,1,.27-1.54,3.23,3.23,0,0,1,.72-1.11,3.14,3.14,0,0,1,1-.67,3,3,0,0,1,1.19-.23,3.31,3.31,0,0,1,1.2.22,2.92,2.92,0,0,1,1,.66,3.33,3.33,0,0,1,.72,1.11,4.4,4.4,0,0,1,.26,1.56,4.27,4.27,0,0,1-.26,1.53,3.14,3.14,0,0,1-.72,1.11,3.14,3.14,0,0,1-2.23.91Zm0-.22a1.37,1.37,0,0,0,.91-.3,1.81,1.81,0,0,0,.5-1,9.5,9.5,0,0,0,.16-2,9.71,9.71,0,0,0-.16-2,1.84,1.84,0,0,0-.5-1,1.37,1.37,0,0,0-.91-.3,1.32,1.32,0,0,0-.9.3,1.84,1.84,0,0,0-.5,1,9.71,9.71,0,0,0-.16,2,9.5,9.5,0,0,0,.16,2,1.81,1.81,0,0,0,.5,1A1.32,1.32,0,0,0,98.57,111.38Z" transform="translate(-38.72 -89.71)"/><path d="M102,111.41v-.1l.21-.08a.46.46,0,0,0,.27-.2.7.7,0,0,0,.06-.32v-5.33a.73.73,0,0,0-.06-.32.46.46,0,0,0-.27-.2l-.21-.08v-.1h2.6v.1l-.19.08a.5.5,0,0,0-.26.2.67.67,0,0,0-.07.33v5.82h1.57a.74.74,0,0,0,.55-.18,2.11,2.11,0,0,0,.35-.53l.39-.86h.11l-.1,1.77Z" transform="translate(-38.72 -89.71)"/><path d="M107.4,111.41v-.1l.26-.09a.79.79,0,0,0,.31-.2.87.87,0,0,0,.19-.33l2.1-6h.87l2.07,6.07a1,1,0,0,0,.18.34.71.71,0,0,0,.32.2l.12,0v.1h-2.59v-.1l.15,0a.38.38,0,0,0,.26-.23.6.6,0,0,0,0-.35l-.48-1.47h-2.27l-.49,1.44a.69.69,0,0,0,0,.36c0,.08.09.16.24.21l.22.09v.1ZM109,109h2.13l-1-3.18Z" transform="translate(-38.72 -89.71)"/><path d="M114.82,111.41v-.1l.42-.1a.48.48,0,0,0,.42-.51v-5.81h-.87a.67.67,0,0,0-.54.19,3.53,3.53,0,0,0-.35.55l-.37.71h-.1l0-1.66h5.89l0,1.66h-.1l-.37-.71a3.57,3.57,0,0,0-.34-.55.67.67,0,0,0-.54-.19h-.86v5.81a.48.48,0,0,0,.41.51l.42.1v.1Z" transform="translate(-38.72 -89.71)"/><path d="M119.85,111.41v-.1l.23-.09a.44.44,0,0,0,.24-.19.58.58,0,0,0,.07-.32v-5.33a.73.73,0,0,0-.06-.32.43.43,0,0,0-.25-.19l-.23-.09v-.1h4.88l.07,1.57h-.11l-.43-1a1.45,1.45,0,0,0-.2-.29.37.37,0,0,0-.3-.11h-1.84v2.94H123a.41.41,0,0,0,.31-.1,1,1,0,0,0,.19-.29l.2-.41h.11v1.83h-.11l-.2-.43a1.82,1.82,0,0,0-.19-.29.41.41,0,0,0-.31-.1h-1.09v3.17H124a.46.46,0,0,0,.32-.11.85.85,0,0,0,.18-.3l.42-1h.1l-.06,1.57Zm1.81-7.39c.18-.18.36-.36.53-.55l.51-.53a1.76,1.76,0,0,1,.42-.37.61.61,0,0,1,.31-.09.45.45,0,0,1,.31.11.41.41,0,0,1,.12.3c0,.21-.21.42-.63.61l-.73.31-.73.33Z" transform="translate(-38.72 -89.71)"/><rect x="96.28" y="18.29" width="20" height="1"/><rect x="0.28" y="18.29" width="20" height="1"/></svg>